<svg width="180" viewBox="0 0 304 52" fill="none" xmlns="http://www.w3.org/2000/svg">
<g id="Green-color">
<path id="Combined Shape" fill-rule="evenodd" clip-rule="evenodd" d="M107.842 4.65605C107.842 2.39534 105.981 0.524414 103.733 0.524414C101.407 0.524414 99.5456 2.39534 99.6231 4.65605C99.6231 6.91676 101.484 8.78769 103.733 8.78769C105.981 8.78769 107.842 6.91676 107.842 4.65605ZM59.6899 26.4056C56.2781 26.4056 50.8503 26.8734 50.8503 30.5373C50.8503 32.2523 52.1685 33.9673 54.8049 33.9673C58.3717 33.9673 60.853 30.1475 60.853 26.9513V26.4056H59.6899ZM85.4333 26.8734C86.9841 26.8734 88.1472 28.1206 88.1472 29.6018L87.9921 32.8759C87.9921 36.6957 91.0162 39.1903 94.6605 39.1903C96.8317 39.1903 99.1579 38.2549 100.554 36.7737C100.864 36.4619 101.096 36.1501 101.329 35.8382C102.492 38.0989 104.741 39.1903 107.222 39.1903C109.703 39.1903 112.03 38.0989 113.58 36.228V37.5533C113.58 38.2549 114.123 38.8785 114.899 38.8785H120.249V22.5858C120.249 16.8951 128.313 15.5698 128.313 20.0133V32.8759C128.313 36.6957 131.337 39.1903 134.981 39.1903C137.695 39.1903 140.022 37.8651 141.65 35.7603C143.201 37.7871 145.449 39.1124 148.473 39.1124C152.195 39.1124 154.909 36.7737 155.685 34.9028V37.7871C155.685 42.6983 152.583 44.959 149.016 45.037C147.233 45.037 145.449 44.6472 143.821 43.7897L142.27 48.3111C151.498 53.3782 162.276 48.467 162.276 36.7737V13.6209C162.276 12.8414 161.655 12.4516 161.345 12.3736C159.174 11.672 157.08 11.4382 154.987 11.4382C144.364 11.4382 139.246 19.7794 139.246 27.3411C139.169 29.1341 139.479 31.005 140.099 32.72C139.479 33.5775 138.393 34.1232 137.153 34.1232C136.067 34.1232 134.981 33.2657 134.981 31.9405V18.2983C134.981 14.4005 132.5 11.828 128.623 11.828C125.366 11.828 122.575 12.8414 120.249 15.18C119.939 13.3871 118.388 11.828 116.294 11.828H111.642V15.8816H112.34C113.038 15.8816 113.658 16.5053 113.658 17.2069V30.0695C113.658 32.0964 112.107 34.1232 109.626 34.1232C108.463 34.1232 107.3 33.1877 107.3 31.7846V13.1532C107.3 12.4516 106.757 11.828 105.981 11.828H98.6151V15.8816H99.313C100.011 15.8816 100.631 16.5053 100.631 17.2069V30.3814C100.631 32.3302 99.1579 34.2012 96.8317 34.2012C95.7461 34.2012 94.6605 33.3437 94.6605 32.0184V27.9647C94.6605 25.1583 92.7996 22.8197 90.2407 22.1181C92.1793 20.7149 93.575 18.8439 93.575 15.9596V13.2312C93.575 12.5296 93.0322 11.9059 92.2568 11.9059H85.1231V15.8816H85.821C86.5188 15.8816 87.1391 16.5053 87.1391 17.2069C87.1391 20.1692 85.0456 21.9622 82.6418 23.1315L80.083 24.3788V2.4733C80.083 1.7717 79.5402 1.14806 78.7648 1.14806H71.3985V5.20174H72.0963C72.7942 5.20174 73.4145 5.82539 73.4145 6.52698V30.4593C73.4145 32.4082 71.8637 34.2791 69.6151 34.2791C68.5295 34.2791 67.4439 33.4216 67.4439 32.0964V20.4031C67.4439 12.9973 61.6284 11.4382 55.5027 11.4382C53.7193 11.4382 49.0669 11.5941 47.4385 12.2957C46.9733 12.5296 46.6631 12.9973 46.6631 13.543V18.688H51.0829V17.9864C51.0829 17.4407 51.4706 16.8951 52.0134 16.7391C52.6337 16.5053 54.4947 16.2714 55.968 16.2714C59.3022 16.2714 60.7755 17.7526 60.7755 20.3251V21.6503H59.845C54.8824 21.6503 44.1819 22.7417 44.1819 30.8491C44.1819 36.1501 48.4466 39.1124 53.1765 39.1124C58.4493 39.1124 60.6204 35.4485 61.0856 34.5909C61.9386 37.5533 64.5749 39.1124 67.5215 39.1124C69.6151 39.1124 71.9413 38.1769 73.4145 36.6178V38.8005H78.7648C79.4627 38.8005 80.083 38.2549 80.083 37.4753V31.7066C80.083 28.9782 82.6418 26.8734 85.4333 26.8734ZM155.685 28.0427L155.762 16.8951C155.219 16.8171 154.754 16.8171 154.211 16.8171C148.706 16.8951 145.915 22.5079 145.992 27.2631C146.07 30.7711 147.388 33.6555 150.567 33.6555C153.203 33.6555 155.685 30.6152 155.685 28.0427ZM192.749 28.8222C192.826 32.6421 189.337 34.2012 184.607 34.2012C182.901 34.2012 178.947 33.7334 178.947 32.0964V28.1986H173.209V36.228C173.209 37.1635 173.674 37.5533 174.527 37.8651C177.473 38.9565 181.04 39.6581 184.219 39.6581C193.912 39.6581 199.495 36.228 199.495 28.7443C199.495 20.8236 193.06 18.5148 187.635 16.5683C183.663 15.143 180.232 13.912 180.265 10.8145C180.342 6.60494 184.995 6.21516 188.019 6.21516C189.415 6.21516 191.818 6.52698 191.818 8.242V10.1129H197.014V3.72059C197.014 2.55126 196.548 2.23943 195.463 1.92761C193.214 1.30397 190.5 0.836236 187.709 0.836236C180.885 0.836236 173.519 2.94103 173.519 10.9704C173.519 18.7624 179.767 20.9594 185.14 22.8489C189.175 24.2675 192.716 25.5127 192.749 28.8222ZM214.383 16.973C216.244 16.973 217.872 18.0644 217.794 20.0133C217.717 23.5992 213.452 25.0024 210.506 25.0024C209.653 25.0024 208.8 24.8465 208.102 24.6906C208.024 19.3896 211.514 16.973 214.383 16.973ZM289.131 16.973C290.992 16.973 292.621 18.0644 292.543 20.0133C292.466 23.5992 288.201 25.0024 285.254 25.0024C284.401 25.0024 283.548 24.8465 282.851 24.6906C282.773 19.3896 286.262 16.973 289.131 16.973ZM291.458 39.1903C295.335 39.1903 298.901 37.943 301.848 35.8382L300.22 31.1609C298.126 32.8759 295.49 33.8893 292.466 33.8893C287.813 33.8893 285.022 32.0964 283.704 29.5238C290.217 31.005 298.901 27.3411 298.901 20.1692C298.901 14.4784 294.404 11.5161 289.364 11.5161C271.995 11.4382 270.754 39.1903 291.458 39.1903ZM216.709 39.1903C220.663 39.1903 225.781 37.7092 228.417 34.435V37.4753C228.417 38.1769 228.96 38.8005 229.736 38.8005H235.086V22.5079C235.086 16.8171 243.15 15.4919 243.15 19.9353V32.798C243.15 36.6178 246.174 39.1124 249.818 39.1124C251.447 39.1124 252.998 38.6446 254.316 37.7871C254.316 37.7871 254.393 37.8651 254.471 37.8651C256.952 38.8005 259.899 39.1124 262.613 39.1124C267.808 39.1124 274.399 37.3973 274.476 31.005C274.523 25.1221 269.313 23.3875 265.177 22.0103C262.462 21.1062 260.209 20.3562 260.209 18.688C260.209 16.3494 263.388 16.1935 265.094 16.1935C266.335 16.1935 268.583 16.2714 268.583 17.9085V18.6101H273.003V13.465C273.003 12.9193 272.693 12.4516 272.228 12.2177C271.375 11.828 267.963 11.3602 264.706 11.3602C260.131 11.3602 253.463 12.3736 253.54 19.1558C253.583 23.6584 257.896 25.2124 261.768 26.6077C264.935 27.7488 267.808 28.7837 267.808 31.2389C267.808 33.6555 264.861 34.2791 262.458 34.2791C261.45 34.2791 258.425 34.1232 258.425 32.72V29.212H253.385V33.8894C252.92 34.1232 252.455 34.2012 251.912 34.2012C250.827 34.2012 249.741 33.3437 249.741 32.0184V18.3762C249.741 14.4784 247.26 11.9059 243.383 11.9059C240.126 11.9059 237.335 12.9193 235.008 15.258C234.698 13.465 233.147 11.9059 231.054 11.9059H226.401V15.9596H227.099C227.797 15.9596 228.417 16.5832 228.417 17.2848V27.6529C226.401 31.3948 222.447 33.8894 217.717 33.8894C213.064 33.8894 210.273 32.0964 208.955 29.5238C215.468 31.005 224.153 27.3411 224.153 20.1692C224.153 14.4784 219.655 11.5161 214.615 11.5161C197.246 11.4382 196.006 39.1903 216.709 39.1903ZM43.0188 38.8005H38.1337C35.6524 38.8005 34.722 37.7092 34.4893 35.1366L33.2487 16.8951L33.1712 11.672L24.7193 38.8005H19.7567L11.3048 11.672L11.2273 16.8951L9.98663 35.1366C9.75401 37.7092 8.90106 38.8005 6.34224 38.8005H1.30212V34.7469H2.07753C2.85293 34.7469 3.16309 34.3571 3.24063 33.5775L5.79946 1.14806H13.3984L21.385 25.4702L22.1604 28.5884L22.9358 25.4702L30.9225 1.14806H38.5214L41.0803 33.5775C41.1578 34.3571 41.468 34.7469 42.2434 34.7469H43.0188V38.8005Z" fill="#5DA552"/>
</g>
</svg>
